<svg xmlns="http://www.w3.org/2000/svg" fill="none" viewBox="0 0 64 64" id="Openshift--Streamline-Svg-Logos" height="64" width="64">
  <desc>
    Openshift Streamline Icon: https://streamlinehq.com
  </desc>
  <path fill="#da2430" d="m18.86293333333333 29.0654 -10.0628 3.6615333333333333c0.12913333333333332 1.6132666666666666 0.4067333333333333 3.2068666666666665 0.7978666666666667 4.768266666666666l9.557933333333333 -3.4807333333333332c-0.30646666666666667 -1.6133333333333333 -0.41586666666666666 -3.2798 -0.29079999999999995 -4.949333333333334" stroke-width="0.6667"></path>
  <path fill="#da2430" d="M63.33306666666667 17.938333333333333c-0.7019333333333333 -1.4476 -1.5135999999999998 -2.8467333333333333 -2.4540666666666664 -4.1652l-10.059999999999999 3.6614666666666666c1.1709333333333332 1.1974666666666667 2.1526666666666667 2.5434666666666663 2.9564666666666666 3.9829333333333334L63.33333333333333 17.937666666666665l-0.0002666666666666667 0.0006666666666666666Z" stroke-width="0.6667"></path>
  <path fill="#da2430" d="M45.48313333333333 17.879133333333332c-1.2658 -1.0983999999999998 -2.695266666666667 -2.0462666666666665 -4.286533333333333 -2.7884666666666664h-0.0006c-9.342133333333333 -4.355333333333333 -20.488333333333333 -0.3032666666666667 -24.8436 9.042 -0.24546666666666667 0.5272666666666667 -0.46286666666666665 1.0602666666666667 -0.6534666666666666 1.5974 -0.5436 1.5815333333333332 -0.8611333333333333 3.1984666666666666 -0.9825999999999999 4.812799999999999l-0.03546666666666666 0.013133333333333332c-0.0009333333333333333 0.0118 -0.0018666666666666666 0.023666666666666662 -0.0027333333333333333 0.03546666666666666l-6.0561333333333325 2.2036666666666664 -3.896913333333333 1.4402c-0.00056 -0.0072 -0.0011133333333333334 -0.014333333333333332 -0.0016666666666666666 -0.021533333333333335l-0.10685333333333333 0.03886666666666666c-0.37831333333333333 -4.785533333333333 0.4283333333333333 -9.728866666666665 2.5984999999999996 -14.382466666666666 0.28406666666666663 -0.6094666666666666 0.587 -1.2043333333333333 0.9076666666666666 -1.7841999999999998C15.276733333333333 4.761153333333333 31.5548 -0.8084866666666667 45.2832 5.693586666666667c2.8414 1.3463466666666666 5.361066666666667 3.1115466666666665 7.5238 5.188746666666667 1.4550666666666665 1.3460666666666665 2.7537333333333334 2.828666666666667 3.885733333333333 4.417466666666666l-10.060599999999999 3.6621333333333332c-0.0518 -0.05293333333333333 -0.10386666666666666 -0.10553333333333333 -0.15626666666666666 -0.15793333333333331l-0.027866666666666665 0.010266666666666667c-0.3098666666666666 -0.3218 -0.6315333333333333 -0.6338666666666666 -0.9648666666666667 -0.9351333333333334Z" stroke-width="0.6667"></path>
  <path fill="#e82429" d="m5.1781999999999995 50.48806666666667 -0.01586 0.0058C3.069113333333333 47.54646666666666 1.54554 44.23513333333333 0.6666666666666666 40.74993333333333l9.559733333333334 -3.481733333333333 0.0006666666666666666 0.0006666666666666666c0.0019333333333333331 0.010266666666666667 0.003933333333333333 0.020533333333333334 0.005933333333333333 0.030866666666666667l0.062066666666666666 -0.023 0.0013999999999999998 0.0038666666666666663c0.49106666666666665 2.6003333333333334 1.5131333333333332 5.080933333333333 3.0034666666666667 7.262133333333333 0.5681999999999999 0.8108666666666666 1.2031333333333332 1.5795333333333332 1.9014666666666664 2.296533333333333l-0.038 0.0138c0.024066666666666667 0.025333333333333333 0.0482 0.050666666666666665 0.07233333333333333 0.07586666666666667L5.266593333333333 50.615199999999994c-0.02958 -0.042333333333333334 -0.059039999999999995 -0.08466666666666667 -0.08839333333333334 -0.12713333333333332Z" stroke-width="0.6667"></path>
  <path fill="#da2430" d="M43.14753333333333 47.91506666666667c-5.183533333333333 3.2052666666666667 -11.832066666666666 3.824533333333333 -17.7564 1.0617999999999999 -2.0957333333333334 -0.9773999999999999 -3.921666666666667 -2.2992666666666666 -5.446133333333333 -3.864466666666667l-10.039066666666667 3.655c0.02553333333333333 0.035866666666666665 0.051199999999999996 0.0718 0.07686666666666667 0.10759999999999999l-0.004933333333333333 0.0018c2.7601999999999998 3.9437333333333333 6.525599999999999 7.2401333333333335 11.145933333333334 9.4302 9.964666666666666 4.718466666666666 21.270866666666667 3.0781333333333336 29.45733333333333 -3.271 3.6658666666666666 -2.7457999999999996 6.726066666666666 -6.405733333333332 8.793466666666667 -10.838733333333332 2.171333333333333 -4.6526 2.973333333333333 -9.594133333333332 2.5890666666666666 -14.375866666666667l-0.27959999999999996 0.10173333333333334c-0.0038 -0.051199999999999996 -0.0077333333333333325 -0.10239999999999999 -0.011733333333333333 -0.1536L51.702666666666666 33.4524l0.00046666666666666666 0.0009333333333333333c-0.15873333333333334 2.1972666666666667 -0.7049333333333332 4.401733333333333 -1.6759999999999997 6.515066666666667 -1.5547999999999997 3.3864666666666663 -3.9799333333333333 6.084066666666666 -6.8796 7.946666666666666Z" stroke-width="0.6667"></path>
  <path fill="#e82429" d="m54.24926666666667 21.2446 0.14946666666666666 -0.05446666666666666v-0.0002666666666666667c1.5726666666666667 3.2359333333333336 2.5325333333333333 6.753333333333334 2.820133333333333 10.355133333333333l-10.039333333333332 3.6524c0.0018666666666666666 -0.024866666666666665 0.003666666666666666 -0.0498 0.005399999999999999 -0.07466666666666666l-0.18986666666666666 0.07013333333333333c0.2733333333333333 -3.715 -0.5600666666666666 -7.409866666666667 -2.3228666666666666 -10.617999999999999l9.491533333333333 -3.5088 0.00046666666666666666 -0.0009333333333333333c0.0286 0.05966666666666666 0.056933333333333336 0.11953333333333332 0.08506666666666665 0.17946666666666666Z" stroke-width="0.6667"></path>
  <path fill="#c22035" d="m18.87533333333333 29.006466666666668 -9.9922 3.692466666666667c0.12806666666666666 1.6275999999999997 0.4038 3.2345333333333333 0.7926666666666666 4.809333333333333l9.491066666666665 -3.510733333333333c-0.3068666666666666 -1.6304 -0.4172 -3.3087999999999997 -0.2877333333333333 -4.992" stroke-width="0.6667"></path>
  <path fill="#c22035" d="M63.03326666666666 17.7856c-0.6967999999999999 -1.4597333333333333 -1.5034 -2.870533333333333 -2.4370666666666665 -4.200333333333333l-9.989733333333334 3.692466666666667c1.1623999999999999 1.208 2.1372666666666666 2.5650666666666666 2.9352666666666662 4.017133333333333l9.490066666666666 -3.5102666666666664 0.0014666666666666667 0.001Z" stroke-width="0.6667"></path>
  <path fill="#ac223b" d="m8.8836 32.700066666666665 9.967733333333332 -3.6512666666666664 -0.040799999999999996 2.0025999999999997 -9.616666666666667 3.6315333333333335 -0.3117333333333333 -1.9852666666666665 0.0014666666666666667 0.0024Z" stroke-width="0.6667"></path>
  <path fill="#ac223b" d="m50.608399999999996 17.247533333333333 10.123066666666666 -3.4737999999999998 1.0521333333333334 1.5877999999999999 -9.835866666666666 3.477133333333333 -1.3378666666666668 -1.5920666666666667 -0.0014666666666666667 0.0009333333333333333Z" stroke-width="0.6667"></path>
  <path fill="#b92135" d="m9.980466666666667 48.839866666666666 9.979733333333332 -3.6315333333333335 3.0182 2.8475333333333332 -10.465466666666666 3.9288666666666665 -2.532 -3.1458 -0.00046666666666666666 0.0009333333333333333Z" stroke-width="0.6667"></path>
  <path fill="#b92135" d="m61.839733333333335 29.7962 -10.136066666666666 3.6550666666666665 -0.7466666666666667 4.0573999999999995 10.807399999999998 -3.8516666666666666 0.07673333333333332 -3.8602666666666665 -0.0013999999999999998 -0.0005333333333333334Z" stroke-width="0.6667"></path>
</svg>